<?xml version="1.0" encoding="UTF-8"?>
<svg version="1.1" xmlns="http://www.w3.org/2000/svg" width="24" height="24">
<path d="M0 0 C3.96220871 3.3961789 4.49510792 4.90778181 5 10.125 C4.88735068 14.43785966 3.45117939 16.95279071 0.625 20.25 C-2.36312362 22.59781141 -5.59411188 22.66825081 -9.34375 22.5703125 C-13.41825238 21.92779482 -16.25254791 19.67857538 -18.75 16.5 C-20.19899408 11.28362133 -20.07553657 7.60103481 -17.625 2.875 C-12.72832137 -2.83779173 -6.58393652 -3.41389301 0 0 Z " fill="#5599FD" transform="translate(19.375,1.75)"/>
<path d="M0 0 C0.69222656 0.08765625 1.38445313 0.1753125 2.09765625 0.265625 C3.9375 0.75 3.9375 0.75 5.9375 2.75 C5.9140625 6.0078125 5.9140625 6.0078125 5.5625 9.875 C5.39621094 11.79699219 5.39621094 11.79699219 5.2265625 13.7578125 C5.08347656 15.23894531 5.08347656 15.23894531 4.9375 16.75 C0.325517 17.88905625 -2.54520255 17.25576582 -7.0625 15.75 C-8.04042207 12.56434478 -8.10907813 9.93678911 -7.8125 6.625 C-7.74546875 5.75617187 -7.6784375 4.88734375 -7.609375 3.9921875 C-6.57943889 -0.23055056 -3.76708905 -0.53513788 0 0 Z " fill="#D2C6B2" transform="translate(13.0625,3.25)"/>
<path d="M0 0 C1.051875 0.14695313 1.051875 0.14695313 2.125 0.296875 C3.176875 0.42835937 3.176875 0.42835937 4.25 0.5625 C6.125 1.046875 6.125 1.046875 8.125 3.046875 C8.1015625 6.3046875 8.1015625 6.3046875 7.75 10.171875 C7.58371094 12.09386719 7.58371094 12.09386719 7.4140625 14.0546875 C7.27097656 15.53582031 7.27097656 15.53582031 7.125 17.046875 C3.09840604 17.97292302 0.18779475 17.89722739 -3.875 17.046875 C-3.875 16.716875 -3.875 16.386875 -3.875 16.046875 C-0.575 16.046875 2.725 16.046875 6.125 16.046875 C6.125 12.416875 6.125 8.786875 6.125 5.046875 C4.475 5.046875 2.825 5.046875 1.125 5.046875 C1.125 5.706875 1.125 6.366875 1.125 7.046875 C-0.195 7.046875 -1.515 7.046875 -2.875 7.046875 C-2.875 5.726875 -2.875 4.406875 -2.875 3.046875 C-1.225 2.716875 0.425 2.386875 2.125 2.046875 C0.145 2.046875 -1.835 2.046875 -3.875 2.046875 C-1.875 0.046875 -1.875 0.046875 0 0 Z " fill="#7781A6" transform="translate(10.875,2.953125)"/>
<path d="M0 0 C0.33 0 0.66 0 1 0 C1 1.98 1 3.96 1 6 C2.65 6 4.3 6 6 6 C6 7.65 6 9.3 6 11 C4.35 11 2.7 11 1 11 C0.67 11.99 0.34 12.98 0 14 C-1.03115279 10.73086376 -0.9638984 8.13958652 -0.5625 4.75 C-0.46066406 3.85796875 -0.35882813 2.9659375 -0.25390625 2.046875 C-0.17011719 1.37140625 -0.08632812 0.6959375 0 0 Z " fill="#A38D99" transform="translate(6,5)"/>
<path d="M0 0 C0 1.65 0 3.3 0 5 C-3.3 5 -6.6 5 -10 5 C-10 4.01 -10 3.02 -10 2 C-8.52112267 1.66538533 -7.04188942 1.33234333 -5.5625 1 C-4.32693359 0.7215625 -4.32693359 0.7215625 -3.06640625 0.4375 C-1 0 -1 0 0 0 Z " fill="#E1E0E0" transform="translate(17,14)"/>
<path d="M0 0 C2.72869407 0.03287583 5.2966618 0.56397771 8 1 C8 1.99 8 2.98 8 4 C6.68 4 5.36 4 4 4 C4 3.34 4 2.68 4 2 C2.02 2 0.04 2 -2 2 C-1.34 1.34 -0.68 0.68 0 0 Z " fill="#9E98A9" transform="translate(9,3)"/>
</svg>
