<?xml version="1.0" encoding="UTF-8"?>
<svg version="1.1" xmlns="http://www.w3.org/2000/svg" width="32" height="32">
<path d="M0 0 C0.75410156 0.01289062 1.50820312 0.02578125 2.28515625 0.0390625 C3.45111328 0.08933594 3.45111328 0.08933594 4.640625 0.140625 C5.82978516 0.16769531 5.82978516 0.16769531 7.04296875 0.1953125 C8.99270848 0.24229418 10.94182378 0.31403456 12.890625 0.390625 C12.91640625 1.06609375 12.9421875 1.7415625 12.96875 2.4375 C13.3315149 8.14280245 13.73888401 10.37281114 17.890625 14.390625 C17.82633456 16.38362852 17.75857901 18.37711738 17.6328125 20.3671875 C18.04724373 23.61984472 20.09566839 25.0149647 22.578125 26.96875 C23.890625 28.390625 23.890625 28.390625 23.890625 32.390625 C19.05806195 31.97640531 17.06383282 29.92648514 13.890625 26.390625 C13.560625 27.050625 13.230625 27.710625 12.890625 28.390625 C5.960625 28.390625 -0.969375 28.390625 -8.109375 28.390625 C-8.21719335 24.47322506 -8.29661273 20.558784 -8.359375 16.640625 C-8.39289062 15.52945312 -8.42640625 14.41828125 -8.4609375 13.2734375 C-8.47382813 12.20351562 -8.48671875 11.13359375 -8.5 10.03125 C-8.52094727 9.04672852 -8.54189453 8.06220703 -8.56347656 7.04785156 C-7.7376777 2.21559628 -4.84547093 -0.14683245 0 0 Z " fill="#324747" transform="translate(8.109375,-0.390625)"/>
<path d="M0 0 C0.75410156 0.01289062 1.50820312 0.02578125 2.28515625 0.0390625 C3.45111328 0.08933594 3.45111328 0.08933594 4.640625 0.140625 C5.82978516 0.16769531 5.82978516 0.16769531 7.04296875 0.1953125 C8.99270848 0.24229418 10.94182378 0.31403456 12.890625 0.390625 C12.91640625 1.06609375 12.9421875 1.7415625 12.96875 2.4375 C13.3315149 8.14280245 13.73888401 10.37281114 17.890625 14.390625 C17.82633456 16.38362852 17.75857901 18.37711738 17.6328125 20.3671875 C18.04724373 23.61984472 20.09566839 25.0149647 22.578125 26.96875 C23.890625 28.390625 23.890625 28.390625 23.890625 32.390625 C19.05806195 31.97640531 17.06383282 29.92648514 13.890625 26.390625 C13.560625 27.050625 13.230625 27.710625 12.890625 28.390625 C5.960625 28.390625 -0.969375 28.390625 -8.109375 28.390625 C-8.21719335 24.47322506 -8.29661273 20.558784 -8.359375 16.640625 C-8.39289062 15.52945312 -8.42640625 14.41828125 -8.4609375 13.2734375 C-8.47382813 12.20351562 -8.48671875 11.13359375 -8.5 10.03125 C-8.52094727 9.04672852 -8.54189453 8.06220703 -8.56347656 7.04785156 C-7.7376777 2.21559628 -4.84547093 -0.14683245 0 0 Z M-2.109375 1.390625 C-2.109375 3.040625 -2.109375 4.690625 -2.109375 6.390625 C-3.759375 6.390625 -5.409375 6.390625 -7.109375 6.390625 C-7.109375 13.320625 -7.109375 20.250625 -7.109375 27.390625 C-1.169375 27.390625 4.770625 27.390625 10.890625 27.390625 C8.57205583 25.84491222 6.38424071 24.59443948 3.890625 23.390625 C3.890625 20.390625 3.890625 20.390625 4.890625 18.390625 C8.520625 18.390625 12.150625 18.390625 15.890625 18.390625 C16.220625 19.380625 16.550625 20.370625 16.890625 21.390625 C17.22510759 18.558457 17.22510759 18.558457 16.890625 15.390625 C16.25125 14.813125 15.611875 14.235625 14.953125 13.640625 C11.64224446 10.02875532 12.14333138 6.19204624 11.890625 1.390625 C7.270625 1.390625 2.650625 1.390625 -2.109375 1.390625 Z " fill="#070808" transform="translate(8.109375,-0.390625)"/>
<path d="M0 0 C4.29 0 8.58 0 13 0 C13 2.97 13 5.94 13 9 C12.67 7.68 12.34 6.36 12 5 C11.34 5 10.68 5 10 5 C9.67 4.01 9.34 3.02 9 2 C8.34 1.67 7.68 1.34 7 1 C6.67 1.99 6.34 2.98 6 4 C3.78298853 5.58965571 1.42137527 6.72327486 -1 8 C-0.67 8.99 -0.34 9.98 0 11 C-1.32 11 -2.64 11 -4 11 C-4 12.98 -4 14.96 -4 17 C-1.36 17 1.28 17 4 17 C2.68 17.33 1.36 17.66 0 18 C0 18.66 0 19.32 0 20 C1.65 20 3.3 20 5 20 C5.33 20.99 5.66 21.98 6 23 C9.51190809 24.22969878 9.51190809 24.22969878 13 25 C13 25.33 13 25.66 13 26 C7.06 26 1.12 26 -5 26 C-5 19.07 -5 12.14 -5 5 C-3.35 5 -1.7 5 0 5 C0 3.35 0 1.7 0 0 Z " fill="#E7ECEF" transform="translate(6,1)"/>
<path d="M0 0 C0.33 0.66 0.66 1.32 1 2 C1.62648438 1.91621094 2.25296875 1.83242188 2.8984375 1.74609375 C3.71570312 1.64425781 4.53296875 1.54242187 5.375 1.4375 C6.18710937 1.33308594 6.99921875 1.22867187 7.8359375 1.12109375 C10 1 10 1 12 2 C12 3.98 12 5.96 12 8 C5.61767125 10.00925164 0.59390542 9.99989549 -6 9 C-6 8.01 -6 7.02 -6 6 C-4.35 6 -2.7 6 -1 6 C-0.67 4.02 -0.34 2.04 0 0 Z " fill="#36290F" transform="translate(12,16)"/>
<path d="M0 0 C0.33 0.66 0.66 1.32 1 2 C1.61875 2.309375 2.2375 2.61875 2.875 2.9375 C5.12977254 4.06488627 6.46423353 5.00350359 8 7 C8 8.32 8 9.64 8 11 C3.16743695 10.58578031 1.17320782 8.53586014 -2 5 C-2.66 5.66 -3.32 6.32 -4 7 C-4 6.34 -4 5.68 -4 5 C-4.99 4.67 -5.98 4.34 -7 4 C-3.535 3.505 -3.535 3.505 0 3 C0 2.01 0 1.02 0 0 Z " fill="#321F0D" transform="translate(24,21)"/>
<path d="M0 0 C0.99 0.33 1.98 0.66 3 1 C2.67 3.64 2.34 6.28 2 9 C1.67 8.01 1.34 7.02 1 6 C0.01 6 -0.98 6 -2 6 C-2 8.64 -2 11.28 -2 14 C-2.33 14 -2.66 14 -3 14 C-3.33 12.35 -3.66 10.7 -4 9 C-5.65 8.67 -7.3 8.34 -9 8 C-7.23205273 6.04595302 -5.66195132 4.79878054 -3.375 3.4375 C-0.88809625 2.22087094 -0.88809625 2.22087094 0 0 Z " fill="#939698" transform="translate(13,2)"/>
<path d="M0 0 C0 1.98 0 3.96 0 6 C-0.66 6 -1.32 6 -2 6 C-2 6.66 -2 7.32 -2 8 C-3.65 8 -5.3 8 -7 8 C-7 6.02 -7 4.04 -7 2 C-2.25 0 -2.25 0 0 0 Z " fill="#7D674B" transform="translate(9,10)"/>
<path d="M0 0 C2.875 -0.125 2.875 -0.125 6 0 C6.66 0.66 7.32 1.32 8 2 C7.67 2.99 7.34 3.98 7 5 C4.03 5 1.06 5 -2 5 C-1.34 3.35 -0.68 1.7 0 0 Z " fill="#B09E68" transform="translate(15,13)"/>
<path d="M0 0 C0.99 0 1.98 0 3 0 C3 1.98 3 3.96 3 6 C3.75925781 5.97679687 4.51851563 5.95359375 5.30078125 5.9296875 C6.29464844 5.91164063 7.28851563 5.89359375 8.3125 5.875 C9.29863281 5.85179687 10.28476563 5.82859375 11.30078125 5.8046875 C14 6 14 6 17 8 C11.06 8 5.12 8 -1 8 C-1 2 -1 2 0 0 Z " fill="#B5B9BB" transform="translate(2,19)"/>
<path d="M0 0 C2.97851562 0.390625 2.97851562 0.390625 5.95703125 0.78125 C8.15471706 1.053233 8.15471706 1.053233 11 1 C11 1.99 11 2.98 11 4 C8.69 4.33 6.38 4.66 4 5 C4 4.34 4 3.68 4 3 C2.68 2.34 1.36 1.68 0 1 C0 0.67 0 0.34 0 0 Z " fill="#6D767A" transform="translate(13,20)"/>
<path d="M0 0 C0.33 0.66 0.66 1.32 1 2 C2.65 2 4.3 2 6 2 C6.33 2.99 6.66 3.98 7 5 C7.99 5.66 8.98 6.32 10 7 C5.71 7 1.42 7 -3 7 C-2.34 6.01 -1.68 5.02 -1 4 C-0.36707617 1.88719655 -0.36707617 1.88719655 0 0 Z " fill="#DDE2E5" transform="translate(5,19)"/>
<path d="M0 0 C2 1 4 2 6 3 C5.67 3.99 5.34 4.98 5 6 C1.7 5.67 -1.6 5.34 -5 5 C-5 4.01 -5 3.02 -5 2 C-3.35 2 -1.7 2 0 2 C0 1.34 0 0.68 0 0 Z " fill="#272F33" transform="translate(11,20)"/>
<path d="M0 0 C4.29 0 8.58 0 13 0 C13 2.97 13 5.94 13 9 C12.67 7.68 12.34 6.36 12 5 C11.34 5 10.68 5 10 5 C9.67 4.01 9.34 3.02 9 2 C6.03 1.67 3.06 1.34 0 1 C0 0.67 0 0.34 0 0 Z " fill="#DDE1E4" transform="translate(6,1)"/>
<path d="M0 0 C0.33 0 0.66 0 1 0 C1 1.65 1 3.3 1 5 C1.66 5 2.32 5 3 5 C2.67 6.65 2.34 8.3 2 10 C0.35 10 -1.3 10 -3 10 C-2.67 8.35 -2.34 6.7 -2 5 C-1.34 5 -0.68 5 0 5 C0 3.35 0 1.7 0 0 Z " fill="#525751" transform="translate(9,11)"/>
<path d="M0 0 C0.66 0 1.32 0 2 0 C2 1.98 2 3.96 2 6 C0.68 5.67 -0.64 5.34 -2 5 C-1.125 1.125 -1.125 1.125 0 0 Z " fill="#474848" transform="translate(4,0)"/>
<path d="M0 0 C0.33 0.66 0.66 1.32 1 2 C3.32156597 2.40729228 5.6568787 2.74438677 8 3 C7.67 3.66 7.34 4.32 7 5 C4.69 4.67 2.38 4.34 0 4 C0 2.68 0 1.36 0 0 Z " fill="#17140C" transform="translate(12,16)"/>
</svg>
